<mxfile host="Electron" modified="2023-10-29T19:08:40.178Z" agent="Mozilla/5.0 (Macintosh; Intel Mac OS X 10_15_7) AppleWebKit/537.36 (KHTML, like Gecko) draw.io/21.6.1 Chrome/112.0.5615.204 Electron/24.6.1 Safari/537.36" etag="XMHzM5j7SP_eZe9yscwp" version="21.6.1" type="device">
  <diagram name="Page-1" id="3PI5ePXXL6KjiWyfRJh0">
    <mxGraphModel dx="2874" dy="1604" grid="1" gridSize="10" guides="1" tooltips="1" connect="1" arrows="1" fold="1" page="1" pageScale="1" pageWidth="4681" pageHeight="3300" math="0" shadow="0">
      <root>
        <mxCell id="0" />
        <mxCell id="1" parent="0" />
        <mxCell id="l_c6dnWP31DtOm2ceM65-33" style="edgeStyle=orthogonalEdgeStyle;rounded=0;orthogonalLoop=1;jettySize=auto;html=1;entryX=0.5;entryY=0;entryDx=0;entryDy=0;" edge="1" parent="1" source="l_c6dnWP31DtOm2ceM65-1" target="l_c6dnWP31DtOm2ceM65-17">
          <mxGeometry relative="1" as="geometry" />
        </mxCell>
        <mxCell id="l_c6dnWP31DtOm2ceM65-1" value="&lt;font style=&quot;font-size: 39px;&quot;&gt;b0&lt;/font&gt;" style="whiteSpace=wrap;html=1;aspect=fixed;" vertex="1" parent="1">
          <mxGeometry x="380" y="270" width="80" height="80" as="geometry" />
        </mxCell>
        <mxCell id="l_c6dnWP31DtOm2ceM65-34" style="edgeStyle=orthogonalEdgeStyle;rounded=0;orthogonalLoop=1;jettySize=auto;html=1;entryX=0.5;entryY=0;entryDx=0;entryDy=0;" edge="1" parent="1" source="l_c6dnWP31DtOm2ceM65-2" target="l_c6dnWP31DtOm2ceM65-18">
          <mxGeometry relative="1" as="geometry" />
        </mxCell>
        <mxCell id="l_c6dnWP31DtOm2ceM65-2" value="&lt;font style=&quot;font-size: 39px;&quot;&gt;b1&lt;/font&gt;" style="whiteSpace=wrap;html=1;aspect=fixed;" vertex="1" parent="1">
          <mxGeometry x="468" y="270" width="80" height="80" as="geometry" />
        </mxCell>
        <mxCell id="l_c6dnWP31DtOm2ceM65-35" style="edgeStyle=orthogonalEdgeStyle;rounded=0;orthogonalLoop=1;jettySize=auto;html=1;entryX=0.5;entryY=0;entryDx=0;entryDy=0;" edge="1" parent="1" source="l_c6dnWP31DtOm2ceM65-3" target="l_c6dnWP31DtOm2ceM65-19">
          <mxGeometry relative="1" as="geometry" />
        </mxCell>
        <mxCell id="l_c6dnWP31DtOm2ceM65-3" value="&lt;font style=&quot;font-size: 39px;&quot;&gt;b2&lt;/font&gt;" style="whiteSpace=wrap;html=1;aspect=fixed;" vertex="1" parent="1">
          <mxGeometry x="556" y="270" width="80" height="80" as="geometry" />
        </mxCell>
        <mxCell id="l_c6dnWP31DtOm2ceM65-36" style="edgeStyle=orthogonalEdgeStyle;rounded=0;orthogonalLoop=1;jettySize=auto;html=1;entryX=0.5;entryY=0;entryDx=0;entryDy=0;" edge="1" parent="1" source="l_c6dnWP31DtOm2ceM65-4" target="l_c6dnWP31DtOm2ceM65-20">
          <mxGeometry relative="1" as="geometry" />
        </mxCell>
        <mxCell id="l_c6dnWP31DtOm2ceM65-4" value="&lt;font style=&quot;font-size: 39px;&quot;&gt;b3&lt;/font&gt;" style="whiteSpace=wrap;html=1;aspect=fixed;" vertex="1" parent="1">
          <mxGeometry x="644" y="270" width="80" height="80" as="geometry" />
        </mxCell>
        <mxCell id="l_c6dnWP31DtOm2ceM65-37" style="rounded=0;orthogonalLoop=1;jettySize=auto;html=1;entryX=0.5;entryY=0;entryDx=0;entryDy=0;" edge="1" parent="1" source="l_c6dnWP31DtOm2ceM65-5" target="l_c6dnWP31DtOm2ceM65-23">
          <mxGeometry relative="1" as="geometry" />
        </mxCell>
        <mxCell id="l_c6dnWP31DtOm2ceM65-5" value="&lt;font style=&quot;font-size: 39px;&quot;&gt;b4&lt;/font&gt;" style="whiteSpace=wrap;html=1;aspect=fixed;" vertex="1" parent="1">
          <mxGeometry x="732" y="270" width="80" height="80" as="geometry" />
        </mxCell>
        <mxCell id="l_c6dnWP31DtOm2ceM65-38" style="rounded=0;orthogonalLoop=1;jettySize=auto;html=1;entryX=0.5;entryY=0;entryDx=0;entryDy=0;" edge="1" parent="1" source="l_c6dnWP31DtOm2ceM65-6" target="l_c6dnWP31DtOm2ceM65-24">
          <mxGeometry relative="1" as="geometry" />
        </mxCell>
        <mxCell id="l_c6dnWP31DtOm2ceM65-6" value="&lt;font style=&quot;font-size: 39px;&quot;&gt;b5&lt;/font&gt;" style="whiteSpace=wrap;html=1;aspect=fixed;" vertex="1" parent="1">
          <mxGeometry x="820" y="270" width="80" height="80" as="geometry" />
        </mxCell>
        <mxCell id="l_c6dnWP31DtOm2ceM65-39" style="rounded=0;orthogonalLoop=1;jettySize=auto;html=1;entryX=0.5;entryY=0;entryDx=0;entryDy=0;" edge="1" parent="1" source="l_c6dnWP31DtOm2ceM65-7" target="l_c6dnWP31DtOm2ceM65-21">
          <mxGeometry relative="1" as="geometry" />
        </mxCell>
        <mxCell id="l_c6dnWP31DtOm2ceM65-7" value="&lt;font style=&quot;font-size: 39px;&quot;&gt;b6&lt;/font&gt;" style="whiteSpace=wrap;html=1;aspect=fixed;" vertex="1" parent="1">
          <mxGeometry x="908" y="270" width="80" height="80" as="geometry" />
        </mxCell>
        <mxCell id="l_c6dnWP31DtOm2ceM65-40" style="rounded=0;orthogonalLoop=1;jettySize=auto;html=1;entryX=0.5;entryY=0;entryDx=0;entryDy=0;" edge="1" parent="1" source="l_c6dnWP31DtOm2ceM65-8" target="l_c6dnWP31DtOm2ceM65-22">
          <mxGeometry relative="1" as="geometry" />
        </mxCell>
        <mxCell id="l_c6dnWP31DtOm2ceM65-8" value="&lt;font style=&quot;font-size: 39px;&quot;&gt;b7&lt;/font&gt;" style="whiteSpace=wrap;html=1;aspect=fixed;" vertex="1" parent="1">
          <mxGeometry x="996" y="270" width="80" height="80" as="geometry" />
        </mxCell>
        <mxCell id="l_c6dnWP31DtOm2ceM65-42" style="rounded=0;orthogonalLoop=1;jettySize=auto;html=1;entryX=0.5;entryY=0;entryDx=0;entryDy=0;" edge="1" parent="1" source="l_c6dnWP31DtOm2ceM65-9" target="l_c6dnWP31DtOm2ceM65-28">
          <mxGeometry relative="1" as="geometry" />
        </mxCell>
        <mxCell id="l_c6dnWP31DtOm2ceM65-9" value="&lt;font style=&quot;font-size: 39px;&quot;&gt;b8&lt;/font&gt;" style="whiteSpace=wrap;html=1;aspect=fixed;" vertex="1" parent="1">
          <mxGeometry x="1084" y="270" width="80" height="80" as="geometry" />
        </mxCell>
        <mxCell id="l_c6dnWP31DtOm2ceM65-41" style="rounded=0;orthogonalLoop=1;jettySize=auto;html=1;entryX=0.5;entryY=0;entryDx=0;entryDy=0;" edge="1" parent="1" source="l_c6dnWP31DtOm2ceM65-10" target="l_c6dnWP31DtOm2ceM65-27">
          <mxGeometry relative="1" as="geometry" />
        </mxCell>
        <mxCell id="l_c6dnWP31DtOm2ceM65-10" value="&lt;font style=&quot;font-size: 39px;&quot;&gt;b9&lt;/font&gt;" style="whiteSpace=wrap;html=1;aspect=fixed;" vertex="1" parent="1">
          <mxGeometry x="1172" y="270" width="80" height="80" as="geometry" />
        </mxCell>
        <mxCell id="l_c6dnWP31DtOm2ceM65-45" style="rounded=0;orthogonalLoop=1;jettySize=auto;html=1;entryX=0.5;entryY=0;entryDx=0;entryDy=0;" edge="1" parent="1" source="l_c6dnWP31DtOm2ceM65-11" target="l_c6dnWP31DtOm2ceM65-26">
          <mxGeometry relative="1" as="geometry" />
        </mxCell>
        <mxCell id="l_c6dnWP31DtOm2ceM65-11" value="&lt;font style=&quot;font-size: 39px;&quot;&gt;b10&lt;/font&gt;" style="whiteSpace=wrap;html=1;aspect=fixed;" vertex="1" parent="1">
          <mxGeometry x="1260" y="270" width="80" height="80" as="geometry" />
        </mxCell>
        <mxCell id="l_c6dnWP31DtOm2ceM65-44" style="rounded=0;orthogonalLoop=1;jettySize=auto;html=1;entryX=0.5;entryY=0;entryDx=0;entryDy=0;" edge="1" parent="1" source="l_c6dnWP31DtOm2ceM65-12" target="l_c6dnWP31DtOm2ceM65-25">
          <mxGeometry relative="1" as="geometry" />
        </mxCell>
        <mxCell id="l_c6dnWP31DtOm2ceM65-12" value="&lt;font style=&quot;font-size: 39px;&quot;&gt;b11&lt;/font&gt;" style="whiteSpace=wrap;html=1;aspect=fixed;" vertex="1" parent="1">
          <mxGeometry x="1348" y="270" width="80" height="80" as="geometry" />
        </mxCell>
        <mxCell id="l_c6dnWP31DtOm2ceM65-49" style="rounded=0;orthogonalLoop=1;jettySize=auto;html=1;entryX=0.5;entryY=0;entryDx=0;entryDy=0;" edge="1" parent="1" source="l_c6dnWP31DtOm2ceM65-13" target="l_c6dnWP31DtOm2ceM65-32">
          <mxGeometry relative="1" as="geometry" />
        </mxCell>
        <mxCell id="l_c6dnWP31DtOm2ceM65-13" value="&lt;font style=&quot;font-size: 39px;&quot;&gt;b12&lt;/font&gt;" style="whiteSpace=wrap;html=1;aspect=fixed;" vertex="1" parent="1">
          <mxGeometry x="1436" y="270" width="80" height="80" as="geometry" />
        </mxCell>
        <mxCell id="l_c6dnWP31DtOm2ceM65-48" style="rounded=0;orthogonalLoop=1;jettySize=auto;html=1;entryX=0.5;entryY=0;entryDx=0;entryDy=0;" edge="1" parent="1" source="l_c6dnWP31DtOm2ceM65-14" target="l_c6dnWP31DtOm2ceM65-31">
          <mxGeometry relative="1" as="geometry" />
        </mxCell>
        <mxCell id="l_c6dnWP31DtOm2ceM65-14" value="&lt;font style=&quot;font-size: 39px;&quot;&gt;b13&lt;/font&gt;" style="whiteSpace=wrap;html=1;aspect=fixed;" vertex="1" parent="1">
          <mxGeometry x="1524" y="270" width="80" height="80" as="geometry" />
        </mxCell>
        <mxCell id="l_c6dnWP31DtOm2ceM65-47" style="rounded=0;orthogonalLoop=1;jettySize=auto;html=1;entryX=0.5;entryY=0;entryDx=0;entryDy=0;" edge="1" parent="1" source="l_c6dnWP31DtOm2ceM65-15" target="l_c6dnWP31DtOm2ceM65-30">
          <mxGeometry relative="1" as="geometry" />
        </mxCell>
        <mxCell id="l_c6dnWP31DtOm2ceM65-15" value="&lt;font style=&quot;font-size: 39px;&quot;&gt;b14&lt;/font&gt;" style="whiteSpace=wrap;html=1;aspect=fixed;" vertex="1" parent="1">
          <mxGeometry x="1612" y="270" width="80" height="80" as="geometry" />
        </mxCell>
        <mxCell id="l_c6dnWP31DtOm2ceM65-46" style="rounded=0;orthogonalLoop=1;jettySize=auto;html=1;entryX=0.5;entryY=0;entryDx=0;entryDy=0;" edge="1" parent="1" source="l_c6dnWP31DtOm2ceM65-16" target="l_c6dnWP31DtOm2ceM65-29">
          <mxGeometry relative="1" as="geometry" />
        </mxCell>
        <mxCell id="l_c6dnWP31DtOm2ceM65-16" value="&lt;font style=&quot;font-size: 39px;&quot;&gt;b15&lt;/font&gt;" style="whiteSpace=wrap;html=1;aspect=fixed;" vertex="1" parent="1">
          <mxGeometry x="1700" y="270" width="80" height="80" as="geometry" />
        </mxCell>
        <mxCell id="l_c6dnWP31DtOm2ceM65-81" style="edgeStyle=orthogonalEdgeStyle;rounded=0;orthogonalLoop=1;jettySize=auto;html=1;entryX=0.5;entryY=0;entryDx=0;entryDy=0;" edge="1" parent="1" source="l_c6dnWP31DtOm2ceM65-17" target="l_c6dnWP31DtOm2ceM65-50">
          <mxGeometry relative="1" as="geometry">
            <Array as="points">
              <mxPoint x="420" y="1790" />
              <mxPoint x="1116" y="1790" />
            </Array>
          </mxGeometry>
        </mxCell>
        <mxCell id="l_c6dnWP31DtOm2ceM65-17" value="&lt;font style=&quot;font-size: 39px;&quot;&gt;b0&lt;/font&gt;" style="whiteSpace=wrap;html=1;aspect=fixed;" vertex="1" parent="1">
          <mxGeometry x="380" y="970" width="80" height="80" as="geometry" />
        </mxCell>
        <mxCell id="l_c6dnWP31DtOm2ceM65-80" style="edgeStyle=orthogonalEdgeStyle;rounded=0;orthogonalLoop=1;jettySize=auto;html=1;entryX=0.5;entryY=0;entryDx=0;entryDy=0;" edge="1" parent="1" source="l_c6dnWP31DtOm2ceM65-18" target="l_c6dnWP31DtOm2ceM65-51">
          <mxGeometry relative="1" as="geometry">
            <Array as="points">
              <mxPoint x="508" y="1760" />
              <mxPoint x="1204" y="1760" />
            </Array>
          </mxGeometry>
        </mxCell>
        <mxCell id="l_c6dnWP31DtOm2ceM65-18" value="&lt;font style=&quot;font-size: 39px;&quot;&gt;b1&lt;/font&gt;" style="whiteSpace=wrap;html=1;aspect=fixed;" vertex="1" parent="1">
          <mxGeometry x="468" y="970" width="80" height="80" as="geometry" />
        </mxCell>
        <mxCell id="l_c6dnWP31DtOm2ceM65-79" style="edgeStyle=orthogonalEdgeStyle;rounded=0;orthogonalLoop=1;jettySize=auto;html=1;entryX=0.5;entryY=0;entryDx=0;entryDy=0;" edge="1" parent="1" source="l_c6dnWP31DtOm2ceM65-19" target="l_c6dnWP31DtOm2ceM65-52">
          <mxGeometry relative="1" as="geometry">
            <Array as="points">
              <mxPoint x="596" y="1730" />
              <mxPoint x="1292" y="1730" />
            </Array>
          </mxGeometry>
        </mxCell>
        <mxCell id="l_c6dnWP31DtOm2ceM65-19" value="&lt;font style=&quot;font-size: 39px;&quot;&gt;b2&lt;/font&gt;" style="whiteSpace=wrap;html=1;aspect=fixed;" vertex="1" parent="1">
          <mxGeometry x="556" y="970" width="80" height="80" as="geometry" />
        </mxCell>
        <mxCell id="l_c6dnWP31DtOm2ceM65-78" style="edgeStyle=orthogonalEdgeStyle;rounded=0;orthogonalLoop=1;jettySize=auto;html=1;entryX=0.5;entryY=0;entryDx=0;entryDy=0;" edge="1" parent="1" source="l_c6dnWP31DtOm2ceM65-20" target="l_c6dnWP31DtOm2ceM65-53">
          <mxGeometry relative="1" as="geometry">
            <Array as="points">
              <mxPoint x="684" y="1700" />
              <mxPoint x="1380" y="1700" />
            </Array>
          </mxGeometry>
        </mxCell>
        <mxCell id="l_c6dnWP31DtOm2ceM65-20" value="&lt;font style=&quot;font-size: 39px;&quot;&gt;b3&lt;/font&gt;" style="whiteSpace=wrap;html=1;aspect=fixed;" vertex="1" parent="1">
          <mxGeometry x="644" y="970" width="80" height="80" as="geometry" />
        </mxCell>
        <mxCell id="l_c6dnWP31DtOm2ceM65-77" style="edgeStyle=orthogonalEdgeStyle;rounded=0;orthogonalLoop=1;jettySize=auto;html=1;entryX=0.5;entryY=0;entryDx=0;entryDy=0;" edge="1" parent="1" source="l_c6dnWP31DtOm2ceM65-21" target="l_c6dnWP31DtOm2ceM65-54">
          <mxGeometry relative="1" as="geometry">
            <Array as="points">
              <mxPoint x="772" y="1670" />
              <mxPoint x="1468" y="1670" />
            </Array>
          </mxGeometry>
        </mxCell>
        <mxCell id="l_c6dnWP31DtOm2ceM65-21" value="&lt;font style=&quot;font-size: 39px;&quot;&gt;b6&lt;/font&gt;" style="whiteSpace=wrap;html=1;aspect=fixed;" vertex="1" parent="1">
          <mxGeometry x="732" y="970" width="80" height="80" as="geometry" />
        </mxCell>
        <mxCell id="l_c6dnWP31DtOm2ceM65-76" style="edgeStyle=orthogonalEdgeStyle;rounded=0;orthogonalLoop=1;jettySize=auto;html=1;entryX=0.5;entryY=0;entryDx=0;entryDy=0;" edge="1" parent="1" source="l_c6dnWP31DtOm2ceM65-22" target="l_c6dnWP31DtOm2ceM65-55">
          <mxGeometry relative="1" as="geometry">
            <Array as="points">
              <mxPoint x="860" y="1640" />
              <mxPoint x="1556" y="1640" />
            </Array>
          </mxGeometry>
        </mxCell>
        <mxCell id="l_c6dnWP31DtOm2ceM65-22" value="&lt;font style=&quot;font-size: 39px;&quot;&gt;b7&lt;/font&gt;" style="whiteSpace=wrap;html=1;aspect=fixed;" vertex="1" parent="1">
          <mxGeometry x="820" y="970" width="80" height="80" as="geometry" />
        </mxCell>
        <mxCell id="l_c6dnWP31DtOm2ceM65-75" style="edgeStyle=orthogonalEdgeStyle;rounded=0;orthogonalLoop=1;jettySize=auto;html=1;entryX=0.5;entryY=0;entryDx=0;entryDy=0;" edge="1" parent="1" source="l_c6dnWP31DtOm2ceM65-23" target="l_c6dnWP31DtOm2ceM65-56">
          <mxGeometry relative="1" as="geometry">
            <Array as="points">
              <mxPoint x="948" y="1610" />
              <mxPoint x="1644" y="1610" />
            </Array>
          </mxGeometry>
        </mxCell>
        <mxCell id="l_c6dnWP31DtOm2ceM65-23" value="&lt;font style=&quot;font-size: 39px;&quot;&gt;b4&lt;/font&gt;" style="whiteSpace=wrap;html=1;aspect=fixed;" vertex="1" parent="1">
          <mxGeometry x="908" y="970" width="80" height="80" as="geometry" />
        </mxCell>
        <mxCell id="l_c6dnWP31DtOm2ceM65-74" style="edgeStyle=orthogonalEdgeStyle;rounded=0;orthogonalLoop=1;jettySize=auto;html=1;entryX=0.5;entryY=0;entryDx=0;entryDy=0;" edge="1" parent="1" source="l_c6dnWP31DtOm2ceM65-24" target="l_c6dnWP31DtOm2ceM65-57">
          <mxGeometry relative="1" as="geometry">
            <Array as="points">
              <mxPoint x="1040" y="1580" />
              <mxPoint x="1732" y="1580" />
            </Array>
          </mxGeometry>
        </mxCell>
        <mxCell id="l_c6dnWP31DtOm2ceM65-24" value="&lt;font style=&quot;font-size: 39px;&quot;&gt;b5&lt;/font&gt;" style="whiteSpace=wrap;html=1;aspect=fixed;" vertex="1" parent="1">
          <mxGeometry x="996" y="970" width="80" height="80" as="geometry" />
        </mxCell>
        <mxCell id="l_c6dnWP31DtOm2ceM65-73" style="edgeStyle=orthogonalEdgeStyle;rounded=0;orthogonalLoop=1;jettySize=auto;html=1;entryX=0.5;entryY=0;entryDx=0;entryDy=0;" edge="1" parent="1" source="l_c6dnWP31DtOm2ceM65-25" target="l_c6dnWP31DtOm2ceM65-58">
          <mxGeometry relative="1" as="geometry" />
        </mxCell>
        <mxCell id="l_c6dnWP31DtOm2ceM65-25" value="&lt;font style=&quot;font-size: 39px;&quot;&gt;b11&lt;/font&gt;" style="whiteSpace=wrap;html=1;aspect=fixed;" vertex="1" parent="1">
          <mxGeometry x="1084" y="970" width="80" height="80" as="geometry" />
        </mxCell>
        <mxCell id="l_c6dnWP31DtOm2ceM65-72" style="edgeStyle=orthogonalEdgeStyle;rounded=0;orthogonalLoop=1;jettySize=auto;html=1;entryX=0.5;entryY=0;entryDx=0;entryDy=0;" edge="1" parent="1" source="l_c6dnWP31DtOm2ceM65-26" target="l_c6dnWP31DtOm2ceM65-59">
          <mxGeometry relative="1" as="geometry" />
        </mxCell>
        <mxCell id="l_c6dnWP31DtOm2ceM65-26" value="&lt;font style=&quot;font-size: 39px;&quot;&gt;b10&lt;/font&gt;" style="whiteSpace=wrap;html=1;aspect=fixed;" vertex="1" parent="1">
          <mxGeometry x="1172" y="970" width="80" height="80" as="geometry" />
        </mxCell>
        <mxCell id="l_c6dnWP31DtOm2ceM65-71" style="edgeStyle=orthogonalEdgeStyle;rounded=0;orthogonalLoop=1;jettySize=auto;html=1;entryX=0.5;entryY=0;entryDx=0;entryDy=0;" edge="1" parent="1" source="l_c6dnWP31DtOm2ceM65-27" target="l_c6dnWP31DtOm2ceM65-60">
          <mxGeometry relative="1" as="geometry" />
        </mxCell>
        <mxCell id="l_c6dnWP31DtOm2ceM65-27" value="&lt;font style=&quot;font-size: 39px;&quot;&gt;b9&lt;/font&gt;" style="whiteSpace=wrap;html=1;aspect=fixed;" vertex="1" parent="1">
          <mxGeometry x="1260" y="970" width="80" height="80" as="geometry" />
        </mxCell>
        <mxCell id="l_c6dnWP31DtOm2ceM65-70" style="edgeStyle=orthogonalEdgeStyle;rounded=0;orthogonalLoop=1;jettySize=auto;html=1;entryX=0.5;entryY=0;entryDx=0;entryDy=0;" edge="1" parent="1" source="l_c6dnWP31DtOm2ceM65-28" target="l_c6dnWP31DtOm2ceM65-61">
          <mxGeometry relative="1" as="geometry" />
        </mxCell>
        <mxCell id="l_c6dnWP31DtOm2ceM65-28" value="&lt;font style=&quot;font-size: 39px;&quot;&gt;b8&lt;/font&gt;" style="whiteSpace=wrap;html=1;aspect=fixed;" vertex="1" parent="1">
          <mxGeometry x="1348" y="970" width="80" height="80" as="geometry" />
        </mxCell>
        <mxCell id="l_c6dnWP31DtOm2ceM65-66" style="edgeStyle=orthogonalEdgeStyle;rounded=0;orthogonalLoop=1;jettySize=auto;html=1;entryX=0.5;entryY=0;entryDx=0;entryDy=0;" edge="1" parent="1" source="l_c6dnWP31DtOm2ceM65-29" target="l_c6dnWP31DtOm2ceM65-62">
          <mxGeometry relative="1" as="geometry" />
        </mxCell>
        <mxCell id="l_c6dnWP31DtOm2ceM65-29" value="&lt;font style=&quot;font-size: 39px;&quot;&gt;b15&lt;/font&gt;" style="whiteSpace=wrap;html=1;aspect=fixed;" vertex="1" parent="1">
          <mxGeometry x="1436" y="970" width="80" height="80" as="geometry" />
        </mxCell>
        <mxCell id="l_c6dnWP31DtOm2ceM65-67" style="edgeStyle=orthogonalEdgeStyle;rounded=0;orthogonalLoop=1;jettySize=auto;html=1;entryX=0.5;entryY=0;entryDx=0;entryDy=0;" edge="1" parent="1" source="l_c6dnWP31DtOm2ceM65-30" target="l_c6dnWP31DtOm2ceM65-63">
          <mxGeometry relative="1" as="geometry" />
        </mxCell>
        <mxCell id="l_c6dnWP31DtOm2ceM65-30" value="&lt;font style=&quot;font-size: 39px;&quot;&gt;b14&lt;/font&gt;" style="whiteSpace=wrap;html=1;aspect=fixed;" vertex="1" parent="1">
          <mxGeometry x="1524" y="970" width="80" height="80" as="geometry" />
        </mxCell>
        <mxCell id="l_c6dnWP31DtOm2ceM65-68" style="edgeStyle=orthogonalEdgeStyle;rounded=0;orthogonalLoop=1;jettySize=auto;html=1;entryX=0.5;entryY=0;entryDx=0;entryDy=0;" edge="1" parent="1" source="l_c6dnWP31DtOm2ceM65-31" target="l_c6dnWP31DtOm2ceM65-64">
          <mxGeometry relative="1" as="geometry" />
        </mxCell>
        <mxCell id="l_c6dnWP31DtOm2ceM65-31" value="&lt;font style=&quot;font-size: 39px;&quot;&gt;b13&lt;/font&gt;" style="whiteSpace=wrap;html=1;aspect=fixed;" vertex="1" parent="1">
          <mxGeometry x="1612" y="970" width="80" height="80" as="geometry" />
        </mxCell>
        <mxCell id="l_c6dnWP31DtOm2ceM65-69" style="edgeStyle=orthogonalEdgeStyle;rounded=0;orthogonalLoop=1;jettySize=auto;html=1;entryX=0.5;entryY=0;entryDx=0;entryDy=0;" edge="1" parent="1" source="l_c6dnWP31DtOm2ceM65-32" target="l_c6dnWP31DtOm2ceM65-65">
          <mxGeometry relative="1" as="geometry" />
        </mxCell>
        <mxCell id="l_c6dnWP31DtOm2ceM65-32" value="&lt;font style=&quot;font-size: 39px;&quot;&gt;b12&lt;/font&gt;" style="whiteSpace=wrap;html=1;aspect=fixed;" vertex="1" parent="1">
          <mxGeometry x="1700" y="970" width="80" height="80" as="geometry" />
        </mxCell>
        <mxCell id="l_c6dnWP31DtOm2ceM65-50" value="&lt;font style=&quot;font-size: 39px;&quot;&gt;b0&lt;/font&gt;" style="whiteSpace=wrap;html=1;aspect=fixed;" vertex="1" parent="1">
          <mxGeometry x="1076" y="1810" width="80" height="80" as="geometry" />
        </mxCell>
        <mxCell id="l_c6dnWP31DtOm2ceM65-51" value="&lt;font style=&quot;font-size: 39px;&quot;&gt;b1&lt;/font&gt;" style="whiteSpace=wrap;html=1;aspect=fixed;" vertex="1" parent="1">
          <mxGeometry x="1164" y="1810" width="80" height="80" as="geometry" />
        </mxCell>
        <mxCell id="l_c6dnWP31DtOm2ceM65-52" value="&lt;font style=&quot;font-size: 39px;&quot;&gt;b2&lt;/font&gt;" style="whiteSpace=wrap;html=1;aspect=fixed;" vertex="1" parent="1">
          <mxGeometry x="1252" y="1810" width="80" height="80" as="geometry" />
        </mxCell>
        <mxCell id="l_c6dnWP31DtOm2ceM65-53" value="&lt;font style=&quot;font-size: 39px;&quot;&gt;b3&lt;/font&gt;" style="whiteSpace=wrap;html=1;aspect=fixed;" vertex="1" parent="1">
          <mxGeometry x="1340" y="1810" width="80" height="80" as="geometry" />
        </mxCell>
        <mxCell id="l_c6dnWP31DtOm2ceM65-54" value="&lt;font style=&quot;font-size: 39px;&quot;&gt;b6&lt;/font&gt;" style="whiteSpace=wrap;html=1;aspect=fixed;" vertex="1" parent="1">
          <mxGeometry x="1428" y="1810" width="80" height="80" as="geometry" />
        </mxCell>
        <mxCell id="l_c6dnWP31DtOm2ceM65-55" value="&lt;font style=&quot;font-size: 39px;&quot;&gt;b7&lt;/font&gt;" style="whiteSpace=wrap;html=1;aspect=fixed;" vertex="1" parent="1">
          <mxGeometry x="1516" y="1810" width="80" height="80" as="geometry" />
        </mxCell>
        <mxCell id="l_c6dnWP31DtOm2ceM65-56" value="&lt;font style=&quot;font-size: 39px;&quot;&gt;b4&lt;/font&gt;" style="whiteSpace=wrap;html=1;aspect=fixed;" vertex="1" parent="1">
          <mxGeometry x="1604" y="1810" width="80" height="80" as="geometry" />
        </mxCell>
        <mxCell id="l_c6dnWP31DtOm2ceM65-57" value="&lt;font style=&quot;font-size: 39px;&quot;&gt;b5&lt;/font&gt;" style="whiteSpace=wrap;html=1;aspect=fixed;" vertex="1" parent="1">
          <mxGeometry x="1692" y="1810" width="80" height="80" as="geometry" />
        </mxCell>
        <mxCell id="l_c6dnWP31DtOm2ceM65-58" value="&lt;font style=&quot;font-size: 39px;&quot;&gt;b11&lt;/font&gt;" style="whiteSpace=wrap;html=1;aspect=fixed;" vertex="1" parent="1">
          <mxGeometry x="1084" y="1422" width="80" height="80" as="geometry" />
        </mxCell>
        <mxCell id="l_c6dnWP31DtOm2ceM65-59" value="&lt;font style=&quot;font-size: 39px;&quot;&gt;b10&lt;/font&gt;" style="whiteSpace=wrap;html=1;aspect=fixed;" vertex="1" parent="1">
          <mxGeometry x="1172" y="1422" width="80" height="80" as="geometry" />
        </mxCell>
        <mxCell id="l_c6dnWP31DtOm2ceM65-60" value="&lt;font style=&quot;font-size: 39px;&quot;&gt;b9&lt;/font&gt;" style="whiteSpace=wrap;html=1;aspect=fixed;" vertex="1" parent="1">
          <mxGeometry x="1260" y="1422" width="80" height="80" as="geometry" />
        </mxCell>
        <mxCell id="l_c6dnWP31DtOm2ceM65-61" value="&lt;font style=&quot;font-size: 39px;&quot;&gt;b8&lt;/font&gt;" style="whiteSpace=wrap;html=1;aspect=fixed;" vertex="1" parent="1">
          <mxGeometry x="1348" y="1422" width="80" height="80" as="geometry" />
        </mxCell>
        <mxCell id="l_c6dnWP31DtOm2ceM65-62" value="&lt;font style=&quot;font-size: 39px;&quot;&gt;b15&lt;/font&gt;" style="whiteSpace=wrap;html=1;aspect=fixed;" vertex="1" parent="1">
          <mxGeometry x="1436" y="1422" width="80" height="80" as="geometry" />
        </mxCell>
        <mxCell id="l_c6dnWP31DtOm2ceM65-63" value="&lt;font style=&quot;font-size: 39px;&quot;&gt;b14&lt;/font&gt;" style="whiteSpace=wrap;html=1;aspect=fixed;" vertex="1" parent="1">
          <mxGeometry x="1524" y="1422" width="80" height="80" as="geometry" />
        </mxCell>
        <mxCell id="l_c6dnWP31DtOm2ceM65-64" value="&lt;font style=&quot;font-size: 39px;&quot;&gt;b13&lt;/font&gt;" style="whiteSpace=wrap;html=1;aspect=fixed;" vertex="1" parent="1">
          <mxGeometry x="1612" y="1422" width="80" height="80" as="geometry" />
        </mxCell>
        <mxCell id="l_c6dnWP31DtOm2ceM65-65" value="&lt;font style=&quot;font-size: 39px;&quot;&gt;b12&lt;/font&gt;" style="whiteSpace=wrap;html=1;aspect=fixed;" vertex="1" parent="1">
          <mxGeometry x="1700" y="1422" width="80" height="80" as="geometry" />
        </mxCell>
        <mxCell id="l_c6dnWP31DtOm2ceM65-82" value="&lt;font style=&quot;font-size: 39px;&quot;&gt;&quot;hi&quot; field&lt;br&gt;8 bytes/64 bits&lt;/font&gt;" style="text;html=1;strokeColor=none;fillColor=none;align=center;verticalAlign=middle;whiteSpace=wrap;rounded=0;" vertex="1" parent="1">
          <mxGeometry x="1870" y="1407" width="300" height="110" as="geometry" />
        </mxCell>
        <mxCell id="l_c6dnWP31DtOm2ceM65-83" value="&lt;font style=&quot;font-size: 39px;&quot;&gt;&quot;lo&quot; field&lt;br&gt;8 bytes/64 bits&lt;/font&gt;" style="text;html=1;strokeColor=none;fillColor=none;align=center;verticalAlign=middle;whiteSpace=wrap;rounded=0;" vertex="1" parent="1">
          <mxGeometry x="1870" y="1795" width="300" height="110" as="geometry" />
        </mxCell>
        <mxCell id="l_c6dnWP31DtOm2ceM65-84" value="" style="shape=curlyBracket;whiteSpace=wrap;html=1;rounded=1;flipH=1;labelPosition=right;verticalLabelPosition=middle;align=left;verticalAlign=middle;" vertex="1" parent="1">
          <mxGeometry x="2230" y="1407" width="50" height="473" as="geometry" />
        </mxCell>
        <mxCell id="l_c6dnWP31DtOm2ceM65-85" value="&lt;span style=&quot;font-size: 39px;&quot;&gt;GUID serialized by Protobuf-net&lt;/span&gt;" style="text;html=1;strokeColor=none;fillColor=none;align=center;verticalAlign=middle;whiteSpace=wrap;rounded=0;" vertex="1" parent="1">
          <mxGeometry x="2320" y="1588.5" width="300" height="110" as="geometry" />
        </mxCell>
      </root>
    </mxGraphModel>
  </diagram>
</mxfile>
